<svg width="1698" height="567" viewBox="0 0 1698 567" fill="none" xmlns="http://www.w3.org/2000/svg">
<path d="M253.374 142.819C252.205 128.566 246.725 117.448 236.935 109.466C227.291 101.484 212.606 97.4932 192.88 97.4932C180.313 97.4932 170.012 98.9898 161.975 101.983C154.085 104.834 148.24 108.753 144.441 113.742C140.642 118.731 138.669 124.432 138.523 130.846C138.231 136.12 139.18 140.895 141.372 145.171C143.71 149.304 147.363 153.081 152.331 156.502C157.299 159.781 163.656 162.774 171.4 165.482C179.144 168.19 188.35 170.613 199.017 172.751L235.839 180.448C260.68 185.579 281.941 192.35 299.621 200.759C317.302 209.169 331.768 219.075 343.019 230.477C354.271 241.738 362.526 254.423 367.787 268.534C373.193 282.645 375.97 298.038 376.116 314.715C375.97 343.507 368.59 367.88 353.978 387.835C339.366 407.79 318.471 422.969 291.292 433.374C264.26 443.779 231.748 448.982 193.757 448.982C154.742 448.982 120.696 443.352 91.6179 432.092C62.6859 420.831 40.1833 403.514 24.11 380.138C8.18278 356.62 0.146121 326.545 0 289.914H115.728C116.459 303.312 119.892 314.572 126.029 323.695C132.167 332.817 140.788 339.73 151.893 344.433C163.144 349.137 176.514 351.489 192.003 351.489C205.008 351.489 215.894 349.921 224.661 346.785C233.428 343.649 240.077 339.302 244.607 333.743C249.136 328.184 251.474 321.842 251.621 314.715C251.474 308.016 249.21 302.172 244.826 297.183C240.588 292.052 233.575 287.491 223.784 283.5C213.994 279.367 200.77 275.518 184.113 271.955L139.4 262.548C99.6546 254.138 68.3116 240.098 45.3706 220.429C22.5757 200.617 11.2513 173.606 11.3974 139.398C11.2513 111.604 18.8496 87.302 34.1923 66.4921C49.6812 45.5396 71.0879 29.2195 98.4126 17.5317C125.883 5.84389 157.372 0 192.88 0C229.118 0 260.461 5.91516 286.909 17.7455C313.357 29.5758 333.741 46.2523 348.06 67.7749C362.526 89.155 369.832 114.17 369.979 142.819H253.374Z" fill="#0E3A99"/>
<path d="M424.226 567V115.452H544.338V172.751H546.968C551.351 161.633 557.781 151.442 566.256 142.178C574.731 132.77 585.251 125.287 597.818 119.729C610.384 114.027 624.996 111.176 641.654 111.176C663.865 111.176 684.979 116.949 704.998 128.494C725.162 140.04 741.528 158.213 754.094 183.014C766.807 207.814 773.163 240.027 773.163 279.652C773.163 317.566 767.099 348.994 754.971 373.938C742.989 398.881 726.916 417.482 706.751 429.74C686.733 441.998 664.741 448.127 640.778 448.127C624.996 448.127 610.896 445.632 598.475 440.644C586.201 435.512 575.681 428.6 566.913 419.905C558.292 411.068 551.644 401.091 546.968 389.973H545.214V567H424.226ZM542.584 279.652C542.584 295.615 544.703 309.441 548.94 321.129C553.324 332.674 559.461 341.654 567.352 348.068C575.388 354.339 584.959 357.475 596.064 357.475C607.17 357.475 616.594 354.411 624.339 348.282C632.229 342.01 638.22 333.102 642.312 321.557C646.549 309.869 648.668 295.9 648.668 279.652C648.668 263.403 646.549 249.506 642.312 237.96C638.22 226.273 632.229 217.364 624.339 211.235C616.594 204.964 607.17 201.828 596.064 201.828C584.959 201.828 575.388 204.964 567.352 211.235C559.461 217.364 553.324 226.273 548.94 237.96C544.703 249.506 542.584 263.403 542.584 279.652Z" fill="#0E3A99"/>
<path d="M986.043 449.837C949.513 449.837 918.243 442.782 892.234 428.671C866.224 414.417 846.279 394.605 832.397 369.234C818.516 343.721 811.575 314.145 811.575 280.507C811.575 246.869 818.516 217.364 832.397 191.993C846.279 166.48 866.224 146.667 892.234 132.557C918.243 118.303 949.513 111.176 986.043 111.176C1022.57 111.176 1053.84 118.303 1079.85 132.557C1105.86 146.667 1125.81 166.48 1139.69 191.993C1153.57 217.364 1160.51 246.869 1160.51 280.507C1160.51 314.145 1153.57 343.721 1139.69 369.234C1125.81 394.605 1105.86 414.417 1079.85 428.671C1053.84 442.782 1022.57 449.837 986.043 449.837ZM986.92 362.606C997.149 362.606 1005.99 359.257 1013.44 352.558C1020.89 345.859 1026.67 336.309 1030.76 323.908C1034.85 311.508 1036.89 296.756 1036.89 279.652C1036.89 262.405 1034.85 247.653 1030.76 235.395C1026.67 222.994 1020.89 213.445 1013.44 206.745C1005.99 200.046 997.149 196.697 986.92 196.697C976.107 196.697 966.828 200.046 959.084 206.745C951.34 213.445 945.422 222.994 941.33 235.395C937.239 247.653 935.193 262.405 935.193 279.652C935.193 296.756 937.239 311.508 941.33 323.908C945.422 336.309 951.34 345.859 959.084 352.558C966.828 359.257 976.107 362.606 986.92 362.606Z" fill="#0E3A99"/>
<path d="M1209.61 443.851V115.452H1327.09V177.882H1330.6C1336.73 154.792 1346.45 137.902 1359.75 127.212C1373.19 116.522 1388.9 111.176 1406.87 111.176C1412.13 111.176 1417.32 111.604 1422.43 112.459C1427.69 113.172 1432.74 114.241 1437.56 115.666V216.367C1431.57 214.371 1424.19 212.874 1415.42 211.877C1406.65 210.879 1399.13 210.38 1392.84 210.38C1381.01 210.38 1370.34 213.017 1360.84 218.291C1351.49 223.422 1344.11 230.691 1338.71 240.098C1333.3 249.363 1330.6 260.267 1330.6 272.81V443.851H1209.61Z" fill="#0E3A99"/>
<path d="M1691.86 115.452V200.973H1470.05V115.452H1691.86ZM1513.01 36.7738H1634V338.233C1634 342.794 1634.8 346.643 1636.41 349.778C1638.02 352.772 1640.5 355.052 1643.86 356.62C1647.22 358.045 1651.53 358.758 1656.79 358.758C1660.45 358.758 1664.68 358.33 1669.51 357.475C1674.47 356.62 1678.13 355.907 1680.47 355.337L1698 438.292C1692.59 439.86 1684.85 441.784 1674.77 444.065C1664.83 446.345 1652.99 447.842 1639.26 448.554C1611.5 449.98 1588.19 447.2 1569.34 440.216C1550.49 433.089 1536.32 421.9 1526.82 406.649C1517.32 391.398 1512.72 372.299 1513.01 349.351V36.7738Z" fill="#0E3A99"/>
</svg>
